<svg width="50" height="57" viewBox="0 0 50 57" fill="none" xmlns="http://www.w3.org/2000/svg">
<g clip-path="url(#clip0)">
<path d="M25 22.5618C23.8227 22.5622 22.6719 22.9108 21.6932 23.5636C20.7145 24.2164 19.9519 25.144 19.5016 26.2291C19.0514 27.3142 18.9338 28.5081 19.1638 29.6599C19.3937 30.8116 19.9609 31.8695 20.7935 32.6998C21.6262 33.53 22.6869 34.0954 23.8417 34.3243C24.9964 34.5533 26.1932 34.4355 27.2809 33.986C28.3686 33.5365 29.2982 32.7754 29.9522 31.7989C30.6063 30.8224 30.9554 29.6744 30.9554 28.5C30.9542 26.9251 30.3263 25.415 29.2096 24.3015C28.093 23.1881 26.5789 22.5623 25 22.5618V22.5618ZM38.9185 17.9973C38.6155 17.2312 38.1578 16.5354 37.574 15.953C36.9902 15.3706 36.2926 14.9141 35.5246 14.6118C33.1808 13.6889 27.6004 13.896 25 13.896C22.3996 13.896 16.8248 13.6811 14.4743 14.6118C13.7063 14.9141 13.0087 15.3706 12.4249 15.953C11.8411 16.5354 11.3834 17.2312 11.0804 17.9973C10.1562 20.3352 10.3627 25.9072 10.3627 28.4989C10.3627 31.0906 10.1562 36.6559 11.0848 39.0016C11.3879 39.7677 11.8455 40.4635 12.4294 41.0459C13.0132 41.6283 13.7108 42.0848 14.4788 42.3871C16.8225 43.31 22.4029 43.1029 25.0045 43.1029C27.606 43.1029 33.1786 43.3178 35.529 42.3871C36.2971 42.0848 36.9946 41.6283 37.5785 41.0459C38.1623 40.4635 38.6199 39.7677 38.923 39.0016C39.8549 36.6637 39.6406 31.0917 39.6406 28.5C39.6406 25.9083 39.8549 20.3441 38.923 17.9984L38.9185 17.9973ZM25 37.6289C23.1899 37.6289 21.4205 37.0935 19.9155 36.0904C18.4105 35.0873 17.2375 33.6616 16.5449 31.9935C15.8522 30.3254 15.6709 28.4899 16.0241 26.719C16.3772 24.9482 17.2488 23.3216 18.5287 22.0449C19.8086 20.7682 21.4393 19.8987 23.2146 19.5465C24.9898 19.1943 26.83 19.375 28.5022 20.066C30.1745 20.7569 31.6038 21.927 32.6094 23.4283C33.615 24.9295 34.1518 26.6945 34.1518 28.5C34.1533 29.6992 33.9175 30.887 33.4581 31.9952C32.9987 33.1034 32.3247 34.1104 31.4746 34.9584C30.6245 35.8064 29.615 36.4787 28.504 36.937C27.393 37.3952 26.2022 37.6304 25 37.6289V37.6289ZM34.529 21.1189C34.1065 21.1192 33.6934 20.9944 33.3419 20.7604C32.9905 20.5264 32.7165 20.1937 32.5547 19.8043C32.3928 19.415 32.3504 18.9865 32.4327 18.5731C32.5149 18.1597 32.7183 17.7799 33.017 17.4818C33.3157 17.1837 33.6963 16.9806 34.1107 16.8983C34.5252 16.816 34.9547 16.8582 35.3451 17.0194C35.7355 17.1806 36.0692 17.4538 36.304 17.8042C36.5387 18.1546 36.6641 18.5666 36.6641 18.9881C36.6652 19.268 36.611 19.5454 36.5045 19.8043C36.3979 20.0633 36.2412 20.2987 36.0433 20.4971C35.8453 20.6954 35.6101 20.8529 35.351 20.9604C35.0919 21.0679 34.8141 21.1233 34.5335 21.1234L34.529 21.1189ZM44.6429 3.5625H5.35714C3.93634 3.5625 2.57373 4.1255 1.56907 5.12765C0.564412 6.1298 0 7.489 0 8.90625L0 48.0938C0 49.511 0.564412 50.8702 1.56907 51.8724C2.57373 52.8745 3.93634 53.4375 5.35714 53.4375H44.6429C46.0637 53.4375 47.4263 52.8745 48.4309 51.8724C49.4356 50.8702 50 49.511 50 48.0938V8.90625C50 7.489 49.4356 6.1298 48.4309 5.12765C47.4263 4.1255 46.0637 3.5625 44.6429 3.5625V3.5625ZM42.7321 35.8477C42.5882 38.701 41.9353 41.2293 39.8471 43.3066C37.7589 45.384 35.2266 46.0487 32.3694 46.1845C29.4219 46.3504 20.5848 46.3504 17.6373 46.1845C14.7768 46.0409 12.2511 45.3885 10.1596 43.3066C8.06808 41.2248 7.41071 38.6954 7.27455 35.8477C7.10826 32.9064 7.10826 24.0903 7.27455 21.1523C7.41853 18.299 8.06362 15.7707 10.1596 13.6934C12.2556 11.616 14.7879 10.9591 17.6373 10.8233C20.5848 10.6574 29.4219 10.6574 32.3694 10.8233C35.2299 10.9669 37.7634 11.6193 39.8471 13.7012C41.9308 15.783 42.596 18.3124 42.7321 21.1657C42.8984 24.0959 42.8984 32.9041 42.7321 35.8477Z" fill="#23D997"/>
</g>
<defs>
<clipPath id="clip0">
<rect width="50" height="57" fill="white"/>
</clipPath>
</defs>
</svg>
