<svg width="50" height="57" viewBox="0 0 50 57" fill="none" xmlns="http://www.w3.org/2000/svg">
<path d="M44.6429 3.5625H5.35714C2.39955 3.5625 0 5.95605 0 8.90625V48.0938C0 51.0439 2.39955 53.4375 5.35714 53.4375H44.6429C47.6004 53.4375 50 51.0439 50 48.0938V8.90625C50 5.95605 47.6004 3.5625 44.6429 3.5625ZM27.2098 42.4605C27.2098 47.3145 24.3527 49.5299 20.1897 49.5299C16.4286 49.5299 14.2522 47.5928 13.1362 45.2437L16.9643 42.9393C17.7009 44.2418 18.3705 45.3439 19.9888 45.3439C21.529 45.3439 22.5112 44.7428 22.5112 42.3937V26.4627H27.2098V42.4605V42.4605ZM38.3259 49.5299C33.9621 49.5299 31.1384 47.4592 29.7656 44.7428L33.5937 42.5385C34.5982 44.175 35.9152 45.3885 38.2254 45.3885C40.1674 45.3885 41.4174 44.4199 41.4174 43.0729C41.4174 41.4697 40.1451 40.902 37.9911 39.9557L36.8192 39.4547C33.4263 38.0186 31.183 36.2039 31.183 32.3854C31.183 28.8674 33.8728 26.1955 38.058 26.1955C41.0491 26.1955 43.192 27.2309 44.7321 29.9473L41.0714 32.2852C40.2679 30.849 39.3973 30.2812 38.0469 30.2812C36.6741 30.2812 35.8036 31.1496 35.8036 32.2852C35.8036 33.6879 36.6741 34.2557 38.6942 35.1352L39.8661 35.6361C43.8616 37.3395 46.1049 39.0873 46.1049 43.0061C46.1049 47.2143 42.779 49.5299 38.3259 49.5299V49.5299Z" fill="#23D997"/>
</svg>
